# xmcd
#
# Track frame offsets: 
#        150
#        12475
#        24510
#        37612
#        54287
#        66742
#        81660
#        99190
#        110845
#        126887
#        140687
#        154087
#
# Disc length: 2236 seconds
#
# Revision: 0
# Processed by: cddbd v1.5.2PL0 Copyright (c) Steve Scherf et al.
# Submitted via: ExactAudioCopy v1.0b3
#
DISCID=a208ba0c
DTITLE=Howie Tarnower and Boston City Limits -  - Howie Tarnower and Bosto
DTITLE=n City Limits
DYEAR=2003
DGENRE=Bluegrass
TTITLE0=Roll On Muddy River
TTITLE1=Springtime In Heaven
TTITLE2=Randall Collins
TTITLE3=Short Life Of Trouble
TTITLE4=Fredericton And Monkton
TTITLE5=Truly Understand
TTITLE6=Never Let Your Deal Go Down
TTITLE7=Yellow Gals
TTITLE8=On A Monday
TTITLE9=True Life Blues
TTITLE10=Don't Get Trouble On Your Mind
TTITLE11=Mechanic's Shrug
EXTD=
EXTT0=
EXTT1=
EXTT2=
EXTT3=
EXTT4=
EXTT5=
EXTT6=
EXTT7=
EXTT8=
EXTT9=
EXTT10=
EXTT11=
PLAYORDER=
